<svg height="38.524" width="58.103" xmlns="http://www.w3.org/2000/svg"><path d="M46.084 27.634a5.826 5.826 0 00-11.517 1.253c-.896 1.344 1.63 5.742 1.63 5.742a11.31 11.31 0 00-2.851-.489c-1.303 0-1.874 2.037-1.874 2.037s8.47.733 9.123-.245c.193-.29.06-.737-.216-1.222h.012a5.83 5.83 0 005.693-7.076zM21.97 16.657a5.483 5.483 0 003.305-.026 63.129 63.129 0 006.356-3.548c-1.723.007-9.219 1.019-10.89.619a2.901 2.901 0 001.228 2.955z" fill="#079c5c"/><path d="M36.644 13.96c-.048-.173-.087-.345-.143-.518-.381-1.2-2.386-7.789-3.617-8.538a9.807 9.807 0 00-5.75-.735 5.234 5.234 0 00-3.388 2.152 1.582 1.582 0 00-.31 1.29 9.616 9.616 0 00.582 2.127c-.901.41-2.875 1.256-3.437 1.5h-.003a2.873 2.873 0 00-1.75 2.03 2.79 2.79 0 00-.057.663c0 .028.006.046.007.073a1.324 1.324 0 00.023.237 1.786 1.786 0 00.875 1.282.8.8 0 00.437.086c1.16-.17.99-1.046 1.209-1.446.038-.07.017-.018.004.008.01.092.032-.024.089.1.26.64.752 1.718 1.352 1.737a3.648 3.648 0 001.24-.283c.396-.245 2.434-1.387 2.6-1.458l.05-.045c.634-.246 1.336-.513 1.743-.705a5.779 5.779 0 01-.329 1.46 10.369 10.369 0 00-.414 3.398c-2.853 4.64-1.386 13.365-1.387 13.642a47.374 47.374 0 00.33 5.846 1.092 1.092 0 00.566-.06 1.357 1.357 0 00.49-.288 2.803 2.803 0 00.676-.926c.593-1.192.52-7.974 1.512-8.557.707.305.323.116 1.275.141-.408 2.351-.73 4.272-.73 4.49a47.371 47.371 0 00.33 5.847 1.092 1.092 0 00.565-.061 1.356 1.356 0 00.49-.288 2.802 2.802 0 00.676-.926c.593-1.191.508-6.892 1.5-7.475 1.834.307 6.238.594 6.537.814 2.55 1.883 7.2-1.867 7.682-5.474-2.587-1.142-9.664-10.281-11.525-11.14zm-17.578.081c0-.018 0-.032.007 0 0 .073-.005.028-.007 0z" fill="#48ba7d"/><path d="M26.314 4.412a3.865 3.865 0 00-1.71.436c-.704.34-.814.733-.814.733L23.713.112z" fill="#079c5c"/><path d="M32.65 4.892S30.587.922 28.49 0c0 0 1.25 3.796.098 5.391a1.723 1.723 0 00-.427.876c-.08.477 1.412-.554 1.412-.554z" fill="#48ba7d"/><path d="M30.957 4.653a7.04 7.04 0 00-1.385-.19 6.028 6.028 0 00-1.385.138L28.491 0z" fill="#079c5c"/><path d="M21.577 14.234l-.254-.072a2.294 2.294 0 00.148-.307 1.4 1.4 0 00.106.379z" fill="none"/><path d="M21.323 14.162l.002.01c-.007.014-.013.022-.002-.01zm6.549-9.158S25.81 1.035 23.712.112c0 0 1.25 3.796.098 5.391a1.723 1.723 0 00-.427.876 5.474 5.474 0 00.062 1.344z" fill="#48ba7d"/><path d="M22.863 15.48l.264.051a1.069 1.069 0 01-.263-.051z" fill="none"/><path d="M21.321 14.163c.039-.07.017-.018.004.008.01.092.032-.024.09.1.26.64.751 1.718 1.351 1.737a3.65 3.65 0 001.24-.283 1.91 1.91 0 01-.422.219 1.017 1.017 0 01.325.941 1.033 1.033 0 01-1.21.815l-2.416-.473a1.032 1.032 0 01-.814-1.21 1.83 1.83 0 01.206-.494 1.001 1.001 0 00.437.086c.354-.013.99-1.046 1.209-1.446z" fill="none"/><path d="M19.073 14.041h-.007c0-.019 0-.032.007 0z" fill="#d69129"/><path d="M19.066 14.04h.007c0 .074-.005.03-.007 0z" fill="#d69129"/><path d="M19.995 12.51c-.025-.246.496-.314 1.073-.304.63-.018 1.607.034 1.583.288-.035.377-.743 1.142-1.111 1.628a.303.303 0 01-.138.102l.003.03a.316.316 0 01-.15-.015h-.01v-.002a.3.3 0 01-.135-.101c-.37-.486-1.08-1.25-1.115-1.626z" fill="#271b11"/><path d="M27.343 9.453c.3.756.963 1.203 1.48.998s.694-.985.394-1.742-.982-1.524-1.5-1.319-.674 1.306-.374 2.063zm-3.678-.45c.198.669.763 1 1.263.741a1.46 1.46 0 00.548-1.68c-.198-.669-.748-1.298-1.248-1.038a1.938 1.938 0 00-.563 1.977z" fill="#010101"/><path d="M51.084 12.355c4.286 3.954-2.367 13.94-2.367 13.94l1.545 1.387s5.994-4.917 5.37-9.763-4.548-5.564-4.548-5.564z" fill="#48ba7d"/><path d="M32.75 5.385c1.14 1.18 2.937 8.264 2.937 8.264l-1.316 2.494a4.807 4.807 0 01-.353.562c-.292-2.606-.992-8.81-1.297-11.087z" fill="#079c5c"/><path d="M35.687 13.649S33.89 6.564 32.75 5.385l-.028.232a8.068 8.068 0 00-.135-.857s.679.19 1.25 1.438a42.726 42.726 0 012.791 7.752 16.04 16.04 0 01-.474 1.71 3.692 3.692 0 01-2.003 2.22l-.132-1.175a4.807 4.807 0 00.353-.562z" fill="#079c5c"/><path d="M52.274 29.263a5.826 5.826 0 00-11.517 1.253c-.896 1.344 1.63 5.742 1.63 5.742a11.31 11.31 0 00-2.851-.489c-1.304 0-1.874 2.037-1.874 2.037s8.47.733 9.123-.245c.192-.29.06-.737-.216-1.222h.012a5.83 5.83 0 005.693-7.076z" fill="#48ba7d"/><path d="M31.364 28.222a12.323 12.323 0 01-2.755-5.765 83.3 83.3 0 00-.191-1.552c-.363-2.756 1.555-6.943 1.507-7.208-.082-.448-1.524-.18-1.524-.18s-5.725 12.967 2.583 14.813c0 0 .428-.044.38-.108z" fill="#079c5c"/><path d="M56.124 14.05s.977.923.869 3.312m.108-3.095s.978.923.869 3.313m-8.09-3.258s-.543 1.411 0 1.954m-.978-.326s-.38-1.14.054-1.737" fill="none" stroke="#079c5c" stroke-miterlimit="10" stroke-width=".25"/><ellipse cx="24.156" cy="7.954" fill="#fff" rx=".454" ry=".272" transform="rotate(-72.398 24.156 7.954)"/><ellipse cx="27.887" cy="8.374" fill="#fff" rx=".272" ry=".454" transform="rotate(-6.065 27.887 8.375)"/><path d="M1.873 36.041a8.036 8.036 0 0116.073 0z" fill="#abdaf5"/><ellipse cx="9.909" cy="28.005" fill="none" rx="1.738" ry="2.28" stroke="#abdaf5" stroke-miterlimit="10"/><path d="M0 36.014h19.629v1.466H0z" fill="#abdaf5"/><path d="M12.217 30.027a11.824 11.824 0 012.606 2.525s.286-1.873-.977-2.565a1.79 1.79 0 00-1.629.04z" fill="#fff"/><path d="M6.68 27.007s.577-4.193-1.802-4.642-2.475-4.912.132-4.349" fill="none" stroke="#abdaf5" stroke-miterlimit="10" stroke-width=".405"/><path d="M9.799 24.07s-1.52-2.51.128-4.147c2.697-2.68 1.176-3.786 1.176-3.786m1.521 10.022s2.28-.543.87-2.932c-1.805-3.053.108-4.887 1.41-4.779s1.847 2.498.76 2.932c-1.027.412-1.085-.434-.868-1.086" fill="none" stroke="#abdaf5" stroke-miterlimit="10" stroke-width=".5"/></svg>